<svg width="96" height="96" viewBox="0 0 96 96" fill="none" xmlns="http://www.w3.org/2000/svg">
<rect width="96" height="96" rx="22" fill="#48D4C8"/>
<path d="M66.6666 49.1667V35.8667C66.6666 31.9463 66.6666 29.9861 65.9037 28.4888C65.2326 27.1716 64.1617 26.1008 62.8446 25.4296C61.3472 24.6667 59.387 24.6667 55.4666 24.6667H40.5333C36.6129 24.6667 34.6528 24.6667 33.1554 25.4296C31.8382 26.1008 30.7674 27.1716 30.0963 28.4888C29.3333 29.9861 29.3333 31.9463 29.3333 35.8667V60.1334C29.3333 64.0537 29.3333 66.0139 30.0963 67.5113C30.7674 68.8284 31.8382 69.8993 33.1554 70.5704C34.6528 71.3334 36.6129 71.3334 40.5333 71.3334H48M52.6666 45.6667H38.6666M43.3333 55H38.6666M57.3333 36.3334H38.6666M53.8333 64.3334L58.5 69L69 58.5" stroke="white" stroke-width="4" stroke-linecap="round" stroke-linejoin="round"/>
</svg>
