<svg width="96" height="96" viewBox="0 0 96 96" fill="none" xmlns="http://www.w3.org/2000/svg">
<rect width="96" height="96" rx="22" fill="#7856FF"/>
<path d="M37.6651 46.6504C37.5564 45.9494 37.4999 45.2312 37.4999 44.5C37.4999 36.768 43.8092 30.5 51.592 30.5C59.3749 30.5 65.6841 36.768 65.6841 44.5C65.6841 46.2466 65.3622 47.9185 64.774 49.4604C64.6519 49.7806 64.5908 49.9407 64.563 50.0657C64.5356 50.1896 64.525 50.2767 64.522 50.4035C64.519 50.5315 64.5363 50.6726 64.571 50.9546L65.2756 56.6774C65.3518 57.2969 65.39 57.6067 65.2869 57.8319C65.1966 58.0292 65.0362 58.1859 64.8369 58.2716C64.6094 58.3695 64.3006 58.3242 63.683 58.2337L58.1088 57.4166C57.8178 57.3739 57.6722 57.3526 57.5397 57.3533C57.4086 57.3541 57.3178 57.3638 57.1895 57.3908C57.0598 57.418 56.8941 57.4801 56.5627 57.6042C55.0169 58.1832 53.3417 58.5 51.592 58.5C50.8602 58.5 50.1414 58.4446 49.4397 58.3377M40.3553 65.5C45.5438 65.5 49.75 61.1907 49.75 55.875C49.75 50.5593 45.5438 46.25 40.3553 46.25C35.1667 46.25 30.9605 50.5593 30.9605 55.875C30.9605 56.9435 31.1305 57.9714 31.4442 58.9318C31.5768 59.3377 31.6431 59.5407 31.6649 59.6794C31.6876 59.8242 31.6916 59.9055 31.6831 60.0518C31.675 60.1919 31.64 60.3503 31.5699 60.667L30.5 65.5L35.7409 64.7842C36.027 64.7452 36.17 64.7256 36.2949 64.7265C36.4264 64.7274 36.4962 64.7345 36.6252 64.7602C36.7477 64.7846 36.9298 64.8489 37.294 64.9774C38.2535 65.3161 39.2834 65.5 40.3553 65.5Z" stroke="white" stroke-width="4" stroke-linecap="round" stroke-linejoin="round"/>
</svg>
