<svg width="96" height="96" viewBox="0 0 96 96" fill="none" xmlns="http://www.w3.org/2000/svg">
<rect width="96" height="96" rx="22" fill="#7856FF"/>
<path d="M48 57.3333V69M62 69L52.7801 61.3167C51.0796 59.8996 50.2293 59.1911 49.2802 58.9203C48.4434 58.6816 47.5566 58.6816 46.7198 58.9203C45.7707 59.1911 44.9205 59.8996 43.22 61.3167L34 69M38.6667 45.6667V48M48 41V48M57.3334 36.3333V48M71.3334 27H24.6667M27 27H69V46.1333C69 50.0537 69 52.0139 68.2371 53.5113C67.566 54.8284 66.4951 55.8993 65.178 56.5704C63.6806 57.3333 61.7204 57.3333 57.8 57.3333H38.2C34.2797 57.3333 32.3195 57.3333 30.8221 56.5704C29.505 55.8993 28.4341 54.8284 27.763 53.5113C27 52.0139 27 50.0537 27 46.1333V27Z" stroke="white" stroke-width="4" stroke-linecap="round" stroke-linejoin="round"/>
</svg>
