<svg width="96" height="96" viewBox="0 0 96 96" fill="none" xmlns="http://www.w3.org/2000/svg">
<rect width="96" height="96" rx="22" fill="#D66C89"/>
<path d="M69 29.3333H27M69 66.6666H27M41 41.5833H27M41 54.4166H27M54.0667 57.3333H65.2667C66.5735 57.3333 67.2269 57.3333 67.726 57.079C68.165 56.8553 68.522 56.4983 68.7457 56.0593C69 55.5602 69 54.9068 69 53.6V42.4C69 41.0932 69 40.4398 68.7457 39.9407C68.522 39.5016 68.165 39.1447 67.726 38.921C67.2269 38.6666 66.5735 38.6666 65.2667 38.6666H54.0667C52.7599 38.6666 52.1065 38.6666 51.6074 38.921C51.1683 39.1447 50.8114 39.5016 50.5877 39.9407C50.3333 40.4398 50.3333 41.0932 50.3333 42.4V53.6C50.3333 54.9068 50.3333 55.5602 50.5877 56.0593C50.8114 56.4983 51.1683 56.8553 51.6074 57.079C52.1065 57.3333 52.7599 57.3333 54.0667 57.3333Z" stroke="white" stroke-width="4" stroke-linecap="round" stroke-linejoin="round"/>
</svg>
