<svg width="96" height="96" viewBox="0 0 96 96" fill="none" xmlns="http://www.w3.org/2000/svg">
<rect width="96" height="96" rx="22" fill="#FF7557"/>
<path d="M48 55L41 48M48 55C51.2593 53.7604 54.3861 52.197 57.3333 50.3333M48 55V66.6667C48 66.6667 55.07 65.3833 57.3333 62C59.8533 58.22 57.3333 50.3333 57.3333 50.3333M41 48C42.2417 44.7787 43.8051 41.6908 45.6667 38.7833C48.3854 34.4363 52.1711 30.8571 56.6637 28.3862C61.1562 25.9153 66.2062 24.6349 71.3333 24.6667C71.3333 31.0133 69.5133 42.1667 57.3333 50.3333M41 48H29.3333C29.3333 48 30.6167 40.93 34 38.6667C37.78 36.1467 45.6667 38.6667 45.6667 38.6667M30.5 58.5C27 61.44 25.8333 70.1667 25.8333 70.1667C25.8333 70.1667 34.56 69 37.5 65.5C39.1567 63.54 39.1333 60.53 37.29 58.71C36.3831 57.8443 35.1884 57.3441 33.9352 57.3054C32.682 57.2666 31.4587 57.692 30.5 58.5Z" stroke="white" stroke-width="4" stroke-linecap="round" stroke-linejoin="round"/>
</svg>
